<svg width="170" height="40" viewBox="0 0 170 40" fill="none" xmlns="http://www.w3.org/2000/svg">
<path d="M16.868 39.9506C13.7841 39.9506 10.9494 39.1924 8.36391 37.6761C5.80957 36.1599 3.76921 34.0503 2.24284 31.3473C0.747612 28.6115 0 25.5459 0 22.1508C0 18.7557 0.747612 15.7066 2.24284 13.0037C3.76921 10.3008 5.80957 8.19118 8.36391 6.67491C10.9494 5.15863 13.7841 4.4005 16.868 4.4005C19.9519 4.4005 22.771 5.15863 25.3254 6.67491C27.9109 8.19118 29.9356 10.3008 31.3997 13.0037C32.8949 15.7066 33.6426 18.7557 33.6426 22.1508C33.6426 25.5459 32.8949 28.6115 31.3997 31.3473C29.9045 34.0503 27.8797 36.1599 25.3254 37.6761C22.771 39.1924 19.9519 39.9506 16.868 39.9506ZM16.868 32.2373C19.4846 32.2373 21.5717 31.3144 23.1293 29.4685C24.7179 27.6226 25.5123 25.1834 25.5123 22.1508C25.5123 19.0853 24.7179 16.6461 23.1293 14.8331C21.5717 12.9872 19.4846 12.0643 16.868 12.0643C14.2202 12.0643 12.102 12.9707 10.5133 14.7837C8.95577 16.5966 8.17701 19.0523 8.17701 22.1508C8.17701 25.2163 8.95577 27.672 10.5133 29.5179C12.102 31.3309 14.2202 32.2373 16.868 32.2373Z" fill="#DCE1EB"/>
<path d="M46.0778 16.6131C47.0123 15.0968 48.1805 13.9102 49.5822 13.0532C50.984 12.1632 52.5415 11.7182 54.2548 11.7182V20.6675H52.0587C50.0651 20.6675 48.5698 21.129 47.573 22.0519C46.5762 22.9419 46.0778 24.5241 46.0778 26.7985V39.6045H38.0877V12.0148H46.0778V16.6131Z" fill="#DCE1EB"/>
<path d="M119.454 11.7182C122.507 11.7182 124.937 12.773 126.744 14.8826C128.582 16.9592 129.5 19.8269 129.5 23.4858V39.6045H121.557V24.623C121.557 22.7771 121.105 21.3432 120.202 20.3214C119.299 19.2995 118.084 18.7886 116.557 18.7886C115.031 18.7886 113.816 19.2995 112.913 20.3214C112.009 21.3432 111.558 22.7771 111.558 24.623V39.6045H103.568V12.0148H111.558V15.6737C112.368 14.4541 113.458 13.4981 114.829 12.8059C116.199 12.0808 117.741 11.7182 119.454 11.7182Z" fill="#A4B0C3"/>
<path d="M139.071 9.14709C137.669 9.14709 136.517 8.71858 135.613 7.86156C134.741 6.97157 134.305 5.88381 134.305 4.59827C134.305 3.27977 134.741 2.19201 135.613 1.33498C136.517 0.444994 137.669 0 139.071 0C140.442 0 141.563 0.444994 142.435 1.33498C143.339 2.19201 143.79 3.27977 143.79 4.59827C143.79 5.88381 143.339 6.97157 142.435 7.86156C141.563 8.71858 140.442 9.14709 139.071 9.14709ZM143.043 12.0148V39.6045H135.053V12.0148H143.043Z" fill="#A4B0C3"/>
<path d="M159.44 40C157.166 40 155.141 39.588 153.366 38.7639C151.59 37.9398 150.188 36.8191 149.16 35.4017C148.132 33.9514 147.556 32.3362 147.431 30.5562H155.328C155.422 31.5122 155.842 32.2868 156.59 32.8801C157.337 33.4734 158.256 33.7701 159.347 33.7701C160.343 33.7701 161.107 33.5723 161.636 33.1768C162.197 32.7482 162.477 32.2044 162.477 31.5451C162.477 30.754 162.088 30.1772 161.309 29.8146C160.53 29.419 159.269 28.9905 157.524 28.529C155.655 28.0676 154.098 27.5896 152.852 27.0952C151.606 26.5678 150.531 25.7602 149.628 24.6724C148.724 23.5517 148.273 22.0519 148.273 20.1731C148.273 18.5909 148.677 17.157 149.487 15.8714C150.328 14.5529 151.543 13.5146 153.132 12.7565C154.752 11.9984 156.668 11.6193 158.879 11.6193C162.15 11.6193 164.72 12.4763 166.589 14.1904C168.489 15.9044 169.579 18.1788 169.86 21.0136H162.477C162.353 20.0577 161.948 19.2995 161.262 18.7392C160.608 18.1788 159.736 17.8986 158.646 17.8986C157.711 17.8986 156.995 18.0964 156.496 18.492C155.998 18.8546 155.749 19.3655 155.749 20.0247C155.749 20.8158 156.138 21.4091 156.917 21.8047C157.727 22.2002 158.973 22.5958 160.655 22.9913C162.586 23.5187 164.159 24.0461 165.374 24.5735C166.589 25.068 167.648 25.892 168.551 27.0457C169.486 28.1665 169.969 29.6827 170 31.5946C170 33.2097 169.564 34.6601 168.692 35.9456C167.851 37.1982 166.62 38.1871 165 38.9122C163.412 39.6374 161.558 40 159.44 40Z" fill="#A4B0C3"/>
<path fill-rule="evenodd" clip-rule="evenodd" d="M90.3479 7.86156C91.2513 8.71858 92.4038 9.14709 93.8056 9.14709C95.1762 9.14709 96.2977 8.71858 97.1699 7.86156C98.0732 6.97157 98.5249 5.88381 98.5249 4.59827C98.5249 3.27977 98.0732 2.19201 97.1699 1.33498C96.2977 0.444994 95.1762 0 93.8056 0C92.4038 0 91.2513 0.444994 90.3479 1.33498C89.4757 2.19201 89.0396 3.27977 89.0396 4.59827C89.0396 5.88381 89.4757 6.97157 90.3479 7.86156ZM89.7872 12.0148V31.6749C95.6311 24.4231 97.2814 15.888 97.7773 12.0148H89.7872Z" fill="#DCE1EB"/>
<path d="M97.7773 39.6045V12.0148C97.2814 15.888 95.6311 24.4231 89.7872 31.6749V39.6045H97.7773Z" fill="#A4B0C3"/>
<path fill-rule="evenodd" clip-rule="evenodd" d="M57.9805 18.2942C56.9836 20.4368 56.4852 22.9254 56.4852 25.7602C56.4852 28.595 56.9836 31.1001 57.9805 33.2756C59.0084 35.4182 60.3946 37.0828 62.1391 38.2695C63.8835 39.4232 65.8304 40 67.9798 40C69.8177 40 71.4219 39.6045 72.7925 38.8134C74.1943 38.0223 75.269 36.9674 76.0166 35.6489V37.6267C79.2247 37.8124 80.9032 36.7251 82.5688 35.6461C83.0378 35.3422 83.5058 35.039 84.0067 34.7651V3.01607H76.0166V15.822C75.2067 14.5365 74.0853 13.5146 72.6524 12.7565C71.2506 11.9984 69.6931 11.6193 67.9798 11.6193C65.8304 11.6193 63.8835 12.1961 62.1391 13.3498C60.3946 14.5035 59.0084 16.1516 57.9805 18.2942ZM74.3345 20.8158C75.4559 22.0354 76.0166 23.7 76.0166 25.8096C76.0166 27.9192 75.4559 29.5838 74.3345 30.8035C73.2442 32.0231 71.9047 32.6329 70.3161 32.6329C68.7274 32.6329 67.3723 32.0231 66.2509 30.8035C65.1607 29.5509 64.6155 27.8698 64.6155 25.7602C64.6155 23.6506 65.1607 22.0025 66.2509 20.8158C67.3723 19.5962 68.7274 18.9864 70.3161 18.9864C71.9047 18.9864 73.2442 19.5962 74.3345 20.8158Z" fill="#DCE1EB"/>
<path d="M76.0166 39.6045H84.0067V34.7651C83.5058 35.039 83.0378 35.3422 82.5688 35.6461C80.9032 36.7251 79.2247 37.8124 76.0166 37.6267V39.6045Z" fill="#A4B0C3"/>
</svg>
